<?xml version="1.0" ?><svg style="enable-background:new 0 0 32 32;" version="1.1" viewBox="0 0 32 32" xml:space="preserve" xmlns="http://www.w3.org/2000/svg" xmlns:xlink="http://www.w3.org/1999/xlink"><g id="Guides"/><g id="_x32_0"/><g id="_x31_9"/><g id="_x31_8"/><g id="_x31_7"/><g id="_x31_6"/><g id="_x31_5"/><g id="_x31_4"/><g id="_x31_3"/><g id="_x31_2"/><g id="_x31_1"/><g id="_x31_0"/><g id="_x30_9"/><g id="_x30_8"/><g id="_x30_7"/><g id="_x30_6"/><g id="_x30_5"/><g id="_x30_4"/><g id="_x30_3"/><g id="_x30_2"/><g id="_x30_1"><g><path d="M16,2C9.3828125,2,4,6.4858398,4,12c0,2.7363281,1.2978516,5.2885742,3.6542969,7.1879883    C7.8710938,19.3623047,8,19.6430664,8,19.9389648V23c0,0.7369995,0.4052124,1.3748169,1,1.7217407v2.0873413    C9,28.5683594,10.4316406,30,12.1904297,30h7.6191406C21.5683594,30,23,28.5683594,23,26.809082v-2.0873413    C23.5947876,24.3748169,24,23.7369995,24,23v-3.0610352c0-0.2958984,0.1289063-0.5766602,0.3466797-0.7509766    C26.7021484,17.2885742,28,14.7363281,28,12C28,6.4858398,22.6171875,2,16,2z M21,26.809082    C21,27.4658203,20.4658203,28,19.8095703,28h-7.6191406C11.5341797,28,11,27.4658203,11,26.809082V25h2v1    c0,0.5522461,0.4472656,1,1,1s1-0.4477539,1-1v-1h2v1c0,0.5522461,0.4472656,1,1,1s1-0.4477539,1-1v-1h2V26.809082z     M23.0917969,17.6303711C22.3974609,18.1889648,22,19.0302734,22,19.9389648V23h-1v-1c0-0.5522461-0.4472656-1-1-1    s-1,0.4477539-1,1v1h-2v-1c0-0.5522461-0.4472656-1-1-1s-1,0.4477539-1,1v1h-2v-1c0-0.5522461-0.4472656-1-1-1s-1,0.4477539-1,1v1    h-1v-3.0610352c0-0.9086914-0.3974609-1.75-1.0908203-2.3085938C7.0332031,16.1186523,6,14.1191406,6,12    c0-4.4111328,4.4863281-8,10-8s10,3.5888672,10,8C26,14.1191406,24.9667969,16.1186523,23.0917969,17.6303711z"/><path d="M15,11.5C15,9.5703125,13.4296875,8,11.5,8S8,9.5703125,8,11.5S9.5703125,15,11.5,15S15,13.4296875,15,11.5z M11.5,13    c-0.8271484,0-1.5-0.6728516-1.5-1.5s0.6728516-1.5,1.5-1.5s1.5,0.6728516,1.5,1.5S12.3271484,13,11.5,13z"/><path d="M20.5,8C18.5703125,8,17,9.5703125,17,11.5s1.5703125,3.5,3.5,3.5s3.5-1.5703125,3.5-3.5S22.4296875,8,20.5,8z M20.5,13    c-0.8271484,0-1.5-0.6728516-1.5-1.5s0.6728516-1.5,1.5-1.5s1.5,0.6728516,1.5,1.5S21.3271484,13,20.5,13z"/><path d="M18.4472656,17.1054688l-2-1c-0.0217896-0.0108643-0.0454102-0.0091553-0.0675659-0.0183105    c-0.0640259-0.0266724-0.1288452-0.0404053-0.1970215-0.0533447C16.1209106,16.0222168,16.0617676,16.0098267,16,16.0100098    c-0.0617676-0.0001831-0.1209106,0.012207-0.1826782,0.0238037c-0.0681763,0.0129395-0.1329956,0.0266724-0.1970215,0.0533447    c-0.0221558,0.0091553-0.0457764,0.0074463-0.0675659,0.0183105l-2,1    c-0.4941406,0.2470703-0.6943359,0.8476563-0.4472656,1.3417969C13.28125,18.7978516,13.6337891,19,14.0009766,19    c0.1503906,0,0.3027344-0.0336914,0.4462891-0.1054688L16,18.1181641l1.5527344,0.7763672    C17.6962891,18.9663086,17.8486328,19,17.9990234,19c0.3671875,0,0.7197266-0.2021484,0.8955078-0.5527344    C19.1416016,17.953125,18.9414063,17.3525391,18.4472656,17.1054688z"/></g></g></svg>